<svg viewBox="0 0 512 512" style="transform: scale(0.5);" class="fl-svg"><svg xmlns="http://www.w3.org/2000/svg" width="512" height="512" viewBox="0 0 512 512" data-svgdocument="" id="_lozZXmrQ4Bjc2v8Jjk5tP" class="fl-svgdocument" x="0" y="0" overflow="hidden" style=""><defs id="_OCOhh_n_vN0Rio0Fz3bQR" transform="matrix(0.7754893344140974, 0, 0, 0.7754893344140974, -81.92650430207993, 101.79068281867556)"><linearGradient x1="0%" y1="50%" x2="100%" y2="50%" id="g_1865968190_2" gradientUnits="objectBoundingBox"><stop offset="0%" stop-color="rgb(77, 189, 90)" stop-opacity="1.00"></stop><stop offset="59%" stop-color="rgb(0, 0, 0)" stop-opacity="1.00"></stop></linearGradient><linearGradient x1="0%" y1="50%" x2="100%" y2="50%" id="g_1888163353_3" gradientUnits="objectBoundingBox"><stop offset="41%" stop-color="rgb(77, 189, 90)" stop-opacity="1"></stop><stop offset="100%" stop-color="rgb(0, 0, 0)" stop-opacity="1.00"></stop></linearGradient></defs><path id="_tMLbDoPeHYDf8vvgFsJ3A" fill="url(#g_1888163353_3)" d="M96.897,37.513c1.921,0,3.478-1.558,3.478-3.479c0-1.92-1.557-3.478-3.478-3.478s-3.478,1.558-3.478,3.478  c0,0.422,0.079,0.825,0.217,1.2l-10.153,8.649l-12.864-7.567c0.073-0.297,0.116-0.607,0.116-0.927c0-2.142-1.736-3.878-3.878-3.878  c-0.869,0-1.668,0.289-2.314,0.772L52.92,23.054c0.054-0.22,0.086-0.448,0.086-0.684c0-1.581-1.281-2.861-2.861-2.861  s-2.861,1.281-2.861,2.861c0,0.729,0.275,1.393,0.724,1.898l-5.835,12.488c-0.26-0.045-0.526-0.074-0.8-0.074  c-0.86,0-1.662,0.239-2.351,0.647l-15.438-6.915c0.036-0.225,0.06-0.454,0.06-0.689c0-2.38-1.929-4.309-4.309-4.309  c-2.379,0-4.309,1.929-4.309,4.309s1.929,4.309,4.309,4.309c1.352,0,2.556-0.623,3.346-1.596l14.682,6.576  c-0.384,0.674-0.607,1.452-0.607,2.284c0,0.852,0.293,1.605,0.694,2.29l-8.233,8.237c-1.136-0.811-2.506-1.294-4.003-1.294  c-2.642,0-4.915,1.501-6.082,3.684l-0.096-0.032c-0.001,0.012-0.004,0.023-0.005,0.035L7.553,49.002  c0.016-0.134,0.025-0.271,0.025-0.409c0-1.989-1.612-3.601-3.601-3.601s-3.601,1.612-3.601,3.601s1.612,3.601,3.601,3.601  c1.054,0,1.999-0.455,2.657-1.177l11.723,5.329c-0.005,0.013-0.009,0.025-0.015,0.037l0.056,0.019  c-0.054,0.348-0.108,0.694-0.108,1.055c0,1.954,0.813,3.716,2.115,4.975l-0.017,0.013c0.004,0.005,0.008,0.01,0.012,0.014  l-5.973,8.802c-0.155-0.027-0.314-0.044-0.478-0.044c-1.479,0-2.678,1.198-2.678,2.678c0,1.479,1.199,2.678,2.678,2.678  c1.479,0,2.678-1.199,2.678-2.678c0-0.501-0.14-0.969-0.38-1.37l5.364-7.904l0.71-0.877c0.881,0.407,1.859,0.641,2.894,0.641  c1.902,0,3.629-0.771,4.883-2.016l6.993,4.991c-0.199,0.514-0.334,1.06-0.334,1.641c0,2.548,2.065,4.617,4.617,4.617  c2.159,0,3.965-1.483,4.471-3.482l15.916-4.923c0.977,1.815,2.893,3.05,5.099,3.05c1.273,0,2.447-0.417,3.403-1.114l7.12,6.611  c-0.038,0.193-0.059,0.393-0.059,0.597c0,1.734,1.406,3.14,3.14,3.14s3.139-1.405,3.139-3.14c0-1.733-1.405-3.139-3.139-3.139  c-0.707,0-1.358,0.236-1.883,0.631l-6.811-6.323c0.552-0.887,0.893-1.93,0.893-3.05c0-2.815-1.661-5.16-4.661-5.677V39.104  c1-0.172,1.082-0.478,1.513-0.878l13.332,7.848l11.179,15.655c-0.092,0.23-0.146,0.481-0.146,0.745c0,1.125,0.91,2.037,2.035,2.037  s2.037-0.912,2.037-2.037s-0.913-2.037-2.038-2.037c-0.03,0-0.06,0.003-0.09,0.005L85.094,45.422l9.931-8.459  C95.565,37.31,96.207,37.513,96.897,37.513z M61.07,62.474c0,0.21,0.013,0.416,0.035,0.62l-15.275,4.724  c-0.522-1.975-2.316-3.435-4.458-3.435c-1.123,0-2.114,0.451-2.913,1.113l-7.038-5.022c0.447-0.92,0.717-1.93,0.717-3.017  c0-1.492-0.487-2.871-1.29-3.999l8.233-8.237c0.686,0.401,1.438,0.694,2.291,0.694c1.642,0,3.079-0.857,3.897-2.147l17.222,14.914  C61.609,59.699,61.07,61.022,61.07,62.474z M66,56.797c-1,0.1-1.135,0.273-1.596,0.502l-18.36-15.846  c0.002-0.052-0.023-0.102-0.023-0.154c0-1.485-0.718-2.802-1.806-3.646l5.799-12.428c0.046,0.002,0.088,0.007,0.134,0.007  c0.53,0,1.023-0.147,1.449-0.399l11.621,9.229c-0.151,0.415-0.113,0.861-0.113,1.328c0,1.757,0.895,3.238,2.895,3.715V56.797z" transform="matrix(2.403973793987411, 0, 0, 2.403973793987411, -0.6180196539607059, -46.899121313734675)"></path><path text="Fusion Tree" text-anchor="middle" font-size="100" letter-spacing="0" side="left" offset="0.5" dx="0" dy="0" space="preserve" href="" font-family="Montserrat" font-scale="contain" transform="matrix(0.3748801350593567, 0, 0, 0.3251127600669861, 366.5334041351774, 65.49213848964169)" x="0" y="0" fill="#3a3a3a" font-weight="700" data-fl-textpath="" id="_bACKzYL2clyS4dqlExFb0" d="M-241.95000000000005-57L-278.65000000000003-57L-278.65000000000003-38.5L-246.25000000000003-38.5L-246.25000000000003-25.5L-278.65000000000003-25.5L-278.65000000000003 0L-294.85 0L-294.85-70L-241.95000000000005-70L-241.95000000000005-57ZM-194.85000000000002-53.8L-179.25000000000003-53.8L-179.25000000000003 0L-194.05000000000004 0L-194.05000000000004-6.4Q-197.15000000000003-2.9 -201.45000000000005-1.05Q-205.75000000000003 0.8 -210.75000000000003 0.8L-210.75000000000003 0.8Q-221.35000000000002 0.8 -227.55000000000004-5.3Q-233.75000000000003-11.4 -233.75000000000003-23.4L-233.75000000000003-23.4L-233.75000000000003-53.8L-218.15000000000003-53.8L-218.15000000000003-25.7Q-218.15000000000003-12.7 -207.25000000000003-12.7L-207.25000000000003-12.7Q-201.65000000000003-12.7 -198.25000000000003-16.35Q-194.85000000000002-20 -194.85000000000002-27.2L-194.85000000000002-27.2L-194.85000000000002-53.8ZM-146.65000000000003 0.8Q-153.35000000000005 0.8 -159.75000000000006-0.85Q-166.15000000000003-2.5 -169.95000000000005-5L-169.95000000000005-5L-164.75000000000006-16.2Q-161.15000000000003-13.9 -156.05000000000004-12.45Q-150.95000000000005-11 -146.05000000000004-11L-146.05000000000004-11Q-136.15000000000003-11 -136.15000000000003-15.9L-136.15000000000003-15.9Q-136.15000000000003-18.2 -138.85000000000005-19.2Q-141.55000000000004-20.2 -147.15000000000003-20.9L-147.15000000000003-20.9Q-153.75000000000006-21.9 -158.05000000000004-23.2Q-162.35000000000005-24.5 -165.50000000000006-27.8Q-168.65000000000003-31.1 -168.65000000000003-37.2L-168.65000000000003-37.2Q-168.65000000000003-42.3 -165.70000000000005-46.25Q-162.75000000000006-50.2 -157.10000000000005-52.4Q-151.45000000000005-54.6 -143.75000000000006-54.6L-143.75000000000006-54.6Q-138.05000000000004-54.6 -132.40000000000003-53.35Q-126.75000000000004-52.1 -123.05000000000004-49.9L-123.05000000000004-49.9L-128.25000000000006-38.8Q-135.35000000000005-42.8 -143.75000000000006-42.8L-143.75000000000006-42.8Q-148.75000000000006-42.8 -151.25000000000006-41.4Q-153.75000000000006-40 -153.75000000000006-37.8L-153.75000000000006-37.8Q-153.75000000000006-35.3 -151.05000000000004-34.3Q-148.35000000000005-33.3 -142.45000000000005-32.4L-142.45000000000005-32.4Q-135.85000000000005-31.3 -131.65000000000003-30.05Q-127.45000000000005-28.8 -124.35000000000005-25.5Q-121.25000000000004-22.2 -121.25000000000004-16.3L-121.25000000000004-16.3Q-121.25000000000004-11.3 -124.25000000000004-7.4Q-127.25000000000004-3.5 -133.00000000000006-1.35Q-138.75000000000006 0.8 -146.65000000000003 0.8L-146.65000000000003 0.8ZM-111.65000000000005 0L-111.65000000000005-53.8L-96.05000000000005-53.8L-96.05000000000005 0L-111.65000000000005 0ZM-103.85000000000005-61.3Q-108.15000000000005-61.3 -110.85000000000005-63.8Q-113.55000000000005-66.3 -113.55000000000005-70L-113.55000000000005-70Q-113.55000000000005-73.7 -110.85000000000005-76.2Q-108.15000000000005-78.7 -103.85000000000005-78.7L-103.85000000000005-78.7Q-99.55000000000005-78.7 -96.85000000000005-76.3Q-94.15000000000005-73.9 -94.15000000000005-70.3L-94.15000000000005-70.3Q-94.15000000000005-66.4 -96.85000000000005-63.85Q-99.55000000000005-61.3 -103.85000000000005-61.3L-103.85000000000005-61.3ZM-55.95000000000006 0.8Q-64.45000000000006 0.8 -71.20000000000006-2.75Q-77.95000000000006-6.3 -81.75000000000006-12.6Q-85.55000000000005-18.9 -85.55000000000005-26.9L-85.55000000000005-26.9Q-85.55000000000005-34.9 -81.75000000000006-41.2Q-77.95000000000006-47.5 -71.20000000000006-51.05Q-64.45000000000006-54.6 -55.95000000000006-54.6L-55.95000000000006-54.6Q-47.45000000000006-54.6 -40.75000000000006-51.05Q-34.050000000000054-47.5 -30.250000000000057-41.2Q-26.45000000000006-34.9 -26.45000000000006-26.9L-26.45000000000006-26.9Q-26.45000000000006-18.9 -30.250000000000057-12.6Q-34.050000000000054-6.3 -40.75000000000006-2.75Q-47.45000000000006 0.8 -55.95000000000006 0.8L-55.95000000000006 0.8ZM-55.95000000000006-12Q-49.95000000000006-12 -46.10000000000006-16.05Q-42.25000000000006-20.1 -42.25000000000006-26.9L-42.25000000000006-26.9Q-42.25000000000006-33.7 -46.10000000000006-37.75Q-49.95000000000006-41.8 -55.95000000000006-41.8L-55.95000000000006-41.8Q-61.95000000000006-41.8 -65.85000000000005-37.75Q-69.75000000000006-33.7 -69.75000000000006-26.9L-69.75000000000006-26.9Q-69.75000000000006-20.1 -65.85000000000005-16.05Q-61.95000000000006-12 -55.95000000000006-12L-55.95000000000006-12ZM 16.64999999999994-54.6Q 26.64999999999994-54.6  32.79999999999994-48.6Q 38.949999999999946-42.6  38.949999999999946-30.8L 38.949999999999946-30.8L 38.949999999999946 0L 23.349999999999945 0L 23.349999999999945-28.4Q 23.349999999999945-34.8  20.54999999999994-37.95Q 17.749999999999943-41.1  12.449999999999946-41.1L 12.449999999999946-41.1Q 6.549999999999944-41.1  3.049999999999944-37.45Q-0.45000000000005613-33.8 -0.45000000000005613-26.6L-0.45000000000005613-26.6L-0.45000000000005613 0L-16.050000000000058 0L-16.050000000000058-53.8L-1.1500000000000554-53.8L-1.1500000000000554-47.5Q 1.9499999999999424-50.9  6.549999999999944-52.75Q 11.149999999999942-54.6  16.64999999999994-54.6L 16.64999999999994-54.6ZM 96.94999999999995 0L 96.94999999999995-56.8L 74.54999999999995-56.8L 74.54999999999995-70L 135.54999999999995-70L 135.54999999999995-56.8L 113.14999999999995-56.8L 113.14999999999995 0L 96.94999999999995 0ZM 156.84999999999994-46.7Q 159.64999999999995-50.6  164.39999999999995-52.6Q 169.14999999999995-54.6  175.34999999999994-54.6L 175.34999999999994-54.6L 175.34999999999994-40.2Q 172.74999999999994-40.4  171.84999999999994-40.4L 171.84999999999994-40.4Q 165.14999999999995-40.4  161.34999999999994-36.65Q 157.54999999999995-32.9  157.54999999999995-25.4L 157.54999999999995-25.4L 157.54999999999995 0L 141.94999999999993 0L 141.94999999999993-53.8L 156.84999999999994-53.8L 156.84999999999994-46.7ZM 236.84999999999994-26.7Q 236.84999999999994-26.4  236.54999999999993-22.5L 236.54999999999993-22.5L 195.84999999999994-22.5Q 196.94999999999993-17.5  201.04999999999993-14.6Q 205.14999999999992-11.7  211.24999999999994-11.7L 211.24999999999994-11.7Q 215.44999999999993-11.7  218.69999999999993-12.95Q 221.94999999999993-14.2  224.74999999999994-16.9L 224.74999999999994-16.9L 233.04999999999993-7.9Q 225.44999999999993 0.8  210.84999999999994 0.8L 210.84999999999994 0.8Q 201.74999999999994 0.8  194.74999999999994-2.75Q 187.74999999999994-6.3  183.94999999999993-12.6Q 180.14999999999992-18.9  180.14999999999992-26.9L 180.14999999999992-26.9Q 180.14999999999992-34.8  183.89999999999992-41.15Q 187.64999999999992-47.5  194.19999999999993-51.05Q 200.74999999999994-54.6  208.84999999999994-54.6L 208.84999999999994-54.6Q 216.74999999999994-54.6  223.14999999999992-51.2Q 229.54999999999993-47.8  233.19999999999993-41.45Q 236.84999999999994-35.1  236.84999999999994-26.7L 236.84999999999994-26.7ZM 208.94999999999993-42.8Q 203.64999999999992-42.8  200.04999999999993-39.8Q 196.44999999999993-36.8  195.64999999999992-31.6L 195.64999999999992-31.6L 222.14999999999992-31.6Q 221.34999999999994-36.7  217.74999999999994-39.75Q 214.14999999999992-42.8  208.94999999999993-42.8L 208.94999999999993-42.8ZM 299.9499999999999-26.7Q 299.9499999999999-26.4  299.6499999999999-22.5L 299.6499999999999-22.5L 258.9499999999999-22.5Q 260.0499999999999-17.5  264.1499999999999-14.6Q 268.2499999999999-11.7  274.3499999999999-11.7L 274.3499999999999-11.7Q 278.5499999999999-11.7  281.7999999999999-12.95Q 285.0499999999999-14.2  287.8499999999999-16.9L 287.8499999999999-16.9L 296.1499999999999-7.9Q 288.5499999999999 0.8  273.9499999999999 0.8L 273.9499999999999 0.8Q 264.8499999999999 0.8  257.8499999999999-2.75Q 250.8499999999999-6.3  247.0499999999999-12.6Q 243.2499999999999-18.9  243.2499999999999-26.9L 243.2499999999999-26.9Q 243.2499999999999-34.8  246.9999999999999-41.15Q 250.7499999999999-47.5  257.2999999999999-51.05Q 263.8499999999999-54.6  271.9499999999999-54.6L 271.9499999999999-54.6Q 279.8499999999999-54.6  286.2499999999999-51.2Q 292.6499999999999-47.8  296.2999999999999-41.45Q 299.9499999999999-35.1  299.9499999999999-26.7L 299.9499999999999-26.7ZM 272.0499999999999-42.8Q 266.7499999999999-42.8  263.1499999999999-39.8Q 259.5499999999999-36.8  258.7499999999999-31.6L 258.7499999999999-31.6L 285.2499999999999-31.6Q 284.4499999999999-36.7  280.8499999999999-39.75Q 277.2499999999999-42.8  272.0499999999999-42.8L 272.0499999999999-42.8Z"></path><path text="Software" text-anchor="middle" font-size="100" letter-spacing="0" side="left" offset="0.5" dx="0" dy="0" space="preserve" href="" font-family="Montserrat" font-scale="contain" transform="matrix(0.3079419732093811, 0, 0, 0.3079419732093811, 322.6386287445524, 101.60591565028622)" x="0" y="0" fill="url(#g_1865968190_2)" data-fl-textpath="" id="_BV8dN3jNM7w4h0tzBWsKw" d="M-190.40000000000003 0.6Q-198.20000000000002 0.6 -205.35000000000002-1.9Q-212.50000000000003-4.4 -216.40000000000003-8.5L-216.40000000000003-8.5L-213.50000000000003-14.2Q-209.70000000000002-10.4 -203.40000000000003-8.05Q-197.10000000000002-5.7 -190.40000000000003-5.7L-190.40000000000003-5.7Q-181.00000000000003-5.7 -176.3-9.15Q-171.60000000000002-12.6 -171.60000000000002-18.1L-171.60000000000002-18.1Q-171.60000000000002-22.3 -174.15000000000003-24.8Q-176.70000000000002-27.3 -180.40000000000003-28.65Q-184.10000000000002-30 -190.70000000000002-31.6L-190.70000000000002-31.6Q-198.60000000000002-33.6 -203.3-35.45Q-208.00000000000003-37.3 -211.35000000000002-41.1Q-214.70000000000002-44.9 -214.70000000000002-51.4L-214.70000000000002-51.4Q-214.70000000000002-56.7 -211.90000000000003-61.05Q-209.10000000000002-65.4 -203.3-68Q-197.50000000000003-70.6 -188.90000000000003-70.6L-188.90000000000003-70.6Q-182.90000000000003-70.6 -177.15000000000003-68.95Q-171.40000000000003-67.3 -167.20000000000002-64.4L-167.20000000000002-64.4L-169.70000000000002-58.5Q-174.10000000000002-61.4 -179.10000000000002-62.85Q-184.10000000000002-64.3 -188.90000000000003-64.3L-188.90000000000003-64.3Q-198.10000000000002-64.3 -202.75000000000003-60.75Q-207.40000000000003-57.2 -207.40000000000003-51.6L-207.40000000000003-51.6Q-207.40000000000003-47.4 -204.85000000000002-44.85Q-202.3-42.3 -198.45000000000002-40.95Q-194.60000000000002-39.6 -188.10000000000002-38L-188.10000000000002-38Q-180.40000000000003-36.1 -175.65000000000003-34.25Q-170.90000000000003-32.4 -167.60000000000002-28.65Q-164.3-24.9 -164.3-18.5L-164.3-18.5Q-164.3-13.2 -167.15000000000003-8.85Q-170.00000000000003-4.5 -175.90000000000003-1.95Q-181.8 0.6 -190.40000000000003 0.6L-190.40000000000003 0.6ZM-128.20000000000002 0.5Q-135.8 0.5 -141.90000000000003-2.95Q-148.00000000000003-6.4 -151.50000000000003-12.5Q-155.00000000000003-18.6 -155.00000000000003-26.3L-155.00000000000003-26.3Q-155.00000000000003-34 -151.50000000000003-40.1Q-148.00000000000003-46.2 -141.90000000000003-49.6Q-135.8-53 -128.20000000000002-53L-128.20000000000002-53Q-120.60000000000002-53 -114.50000000000003-49.6Q-108.40000000000002-46.2 -104.95000000000002-40.1Q-101.50000000000003-34 -101.50000000000003-26.3L-101.50000000000003-26.3Q-101.50000000000003-18.6 -104.95000000000002-12.5Q-108.40000000000002-6.4 -114.50000000000003-2.95Q-120.60000000000002 0.5 -128.20000000000002 0.5L-128.20000000000002 0.5ZM-128.20000000000002-5.8Q-122.60000000000002-5.8 -118.15000000000002-8.35Q-113.70000000000002-10.9 -111.20000000000002-15.6Q-108.70000000000002-20.3 -108.70000000000002-26.3L-108.70000000000002-26.3Q-108.70000000000002-32.3 -111.20000000000002-37Q-113.70000000000002-41.7 -118.15000000000002-44.25Q-122.60000000000002-46.8 -128.20000000000002-46.8L-128.20000000000002-46.8Q-133.8-46.8 -138.25000000000003-44.25Q-142.70000000000002-41.7 -145.25000000000003-37Q-147.8-32.3 -147.8-26.3L-147.8-26.3Q-147.8-20.3 -145.25000000000003-15.6Q-142.70000000000002-10.9 -138.25000000000003-8.35Q-133.8-5.8 -128.20000000000002-5.8L-128.20000000000002-5.8ZM-69.60000000000002-68.7Q-74.20000000000002-68.7 -76.55000000000001-66.2Q-78.90000000000002-63.7 -78.90000000000002-58.8L-78.90000000000002-58.8L-78.90000000000002-52.6L-62.70000000000002-52.6L-62.70000000000002-46.6L-78.70000000000002-46.6L-78.70000000000002 0L-85.80000000000003 0L-85.80000000000003-46.6L-95.20000000000002-46.6L-95.20000000000002-52.6L-85.80000000000003-52.6L-85.80000000000003-59.1Q-85.80000000000003-66.3 -81.65000000000002-70.5Q-77.50000000000003-74.7 -69.90000000000002-74.7L-69.90000000000002-74.7Q-66.90000000000002-74.7 -64.10000000000002-73.85Q-61.30000000000002-73 -59.40000000000002-71.4L-59.40000000000002-71.4L-61.80000000000002-66.1Q-64.90000000000002-68.7 -69.60000000000002-68.7L-69.60000000000002-68.7ZM-27.900000000000013-8.3L-25.400000000000013-3.2Q-27.400000000000013-1.4 -30.350000000000016-0.45Q-33.30000000000001 0.5 -36.500000000000014 0.5L-36.500000000000014 0.5Q-43.90000000000001 0.5 -47.90000000000001-3.5Q-51.90000000000001-7.5 -51.90000000000001-14.8L-51.90000000000001-14.8L-51.90000000000001-46.6L-61.30000000000001-46.6L-61.30000000000001-52.6L-51.90000000000001-52.6L-51.90000000000001-64.1L-44.80000000000001-64.1L-44.80000000000001-52.6L-28.80000000000001-52.6L-28.80000000000001-46.6L-44.80000000000001-46.6L-44.80000000000001-15.2Q-44.80000000000001-10.5 -42.45000000000002-8.05Q-40.100000000000016-5.6 -35.70000000000002-5.6L-35.70000000000002-5.6Q-33.500000000000014-5.6 -31.450000000000014-6.3Q-29.400000000000013-7 -27.900000000000013-8.3L-27.900000000000013-8.3ZM 57.199999999999974-52.6L 63.699999999999974-52.6L 43.79999999999998 0L 37.09999999999998 0L 20.49999999999998-43.1L 3.899999999999981 0L-2.8000000000000185 0L-22.60000000000002-52.6L-15.80000000000002-52.6L 0.6999999999999815-7.9L 17.59999999999998-52.6L 23.69999999999998-52.6L 40.49999999999998-7.9L 57.199999999999974-52.6ZM 91.19999999999999-53Q 101.5-53  107-47.85Q 112.5-42.7  112.5-32.6L 112.5-32.6L 112.5 0L 105.69999999999999 0L 105.69999999999999-8.2Q 103.29999999999998-4.1  98.64999999999999-1.8Q 94 0.5  87.6 0.5L 87.6 0.5Q 78.8 0.5  73.6-3.7Q 68.39999999999999-7.9  68.39999999999999-14.8L 68.39999999999999-14.8Q 68.39999999999999-21.5  73.24999999999999-25.6Q 78.1-29.7  88.69999999999999-29.7L 88.69999999999999-29.7L 105.39999999999999-29.7L 105.39999999999999-32.9Q 105.39999999999999-39.7  101.6-43.25Q 97.79999999999998-46.8  90.5-46.8L 90.5-46.8Q 85.5-46.8  80.89999999999999-45.15Q 76.3-43.5  72.99999999999999-40.6L 72.99999999999999-40.6L 69.8-45.9Q 73.8-49.3  79.39999999999999-51.15Q 85-53  91.19999999999999-53L 91.19999999999999-53ZM 88.69999999999999-5.1Q 94.69999999999999-5.1  99-7.85Q 103.29999999999998-10.6  105.39999999999999-15.8L 105.39999999999999-15.8L 105.39999999999999-24.4L 88.89999999999999-24.4Q 75.39999999999999-24.4  75.39999999999999-15L 75.39999999999999-15Q 75.39999999999999-10.4  78.89999999999999-7.75Q 82.39999999999999-5.1  88.69999999999999-5.1L 88.69999999999999-5.1ZM 138.59999999999997-42.3Q 141.09999999999997-47.6  146.04999999999998-50.3Q 150.99999999999997-53  158.29999999999998-53L 158.29999999999998-53L 158.29999999999998-46.1L 156.59999999999997-46.2Q 148.29999999999998-46.2  143.59999999999997-41.1Q 138.89999999999998-36  138.89999999999998-26.8L 138.89999999999998-26.8L 138.89999999999998 0L 131.79999999999998 0L 131.79999999999998-52.6L 138.59999999999997-52.6L 138.59999999999997-42.3ZM 216.5-26.3L 216.39999999999998-24.1L 172.39999999999998-24.1Q 173-15.9  178.7-10.85Q 184.39999999999998-5.8  193.1-5.8L 193.1-5.8Q 198-5.8  202.1-7.55Q 206.2-9.3  209.2-12.7L 209.2-12.7L 213.2-8.1Q 209.7-3.9  204.45-1.7Q 199.2 0.5  192.89999999999998 0.5L 192.89999999999998 0.5Q 184.79999999999998 0.5  178.54999999999998-2.95Q 172.29999999999998-6.4  168.79999999999998-12.5Q 165.29999999999998-18.6  165.29999999999998-26.3L 165.29999999999998-26.3Q 165.29999999999998-34  168.64999999999998-40.1Q 172-46.2  177.85-49.6Q 183.7-53  191-53L 191-53Q 198.29999999999998-53  204.1-49.6Q 209.89999999999998-46.2  213.2-40.15Q 216.5-34.1  216.5-26.3L 216.5-26.3ZM 191-46.9Q 183.39999999999998-46.9  178.25-42.05Q 173.1-37.2  172.39999999999998-29.4L 172.39999999999998-29.4L 209.7-29.4Q 209-37.2  203.85-42.05Q 198.7-46.9  191-46.9L 191-46.9Z"></path></svg></svg>